<svg width="44" height="44" viewBox="0 0 44 44" fill="none" xmlns="http://www.w3.org/2000/svg">
<path d="M30.4008 0.757872C27.7483 3.41031 22.8813 11.4954 22.0852 16.8856C22.0682 16.988 21.9289 16.9851 21.9147 16.8856C21.1187 11.4954 16.2517 3.41031 13.5992 0.757872C10.1963 -2.64507 7.47562 6.4721 7.26527 7.20551C7.25675 7.23683 7.23683 7.25675 7.20551 7.26527C6.4721 7.47562 -2.64507 10.1963 0.757872 13.5992C3.41031 16.2517 11.4954 21.1187 16.8856 21.9147C16.988 21.9318 16.9851 22.0711 16.8856 22.0852C11.4954 22.8813 3.41031 27.7483 0.757872 30.4008C-2.64507 33.8037 6.4721 36.5243 7.20551 36.7347C7.23683 36.7432 7.25675 36.7631 7.26527 36.7944C7.47562 37.5279 10.1963 46.6451 13.5992 43.2421C16.2517 40.5896 21.1187 32.5045 21.9147 27.1143C21.9318 27.012 22.0711 27.0149 22.0852 27.1143C22.8813 32.5045 27.7483 40.5896 30.4008 43.2421C33.8037 46.6451 36.5243 37.5279 36.7347 36.7944C36.7432 36.7631 36.7631 36.7432 36.7944 36.7347C37.5279 36.5243 46.6451 33.8037 43.2421 30.4008C40.5896 27.7483 32.5045 22.8813 27.1143 22.0852C27.012 22.0682 27.0149 21.9289 27.1143 21.9147C32.5045 21.1187 40.5896 16.2517 43.2421 13.5992C46.6451 10.1963 37.5279 7.47562 36.7944 7.26527C36.7631 7.25675 36.7432 7.23683 36.7347 7.20551C36.5243 6.4721 33.8037 -2.64507 30.4008 0.757872ZM22.0852 24.5274C22.0682 24.6183 21.9318 24.6183 21.9147 24.5274C21.7783 23.8734 21.5196 23.3191 21.1016 22.9012C20.6837 22.4833 20.1322 22.2217 19.4755 22.0881C19.3845 22.0711 19.3845 21.9346 19.4755 21.9175C20.1293 21.781 20.6837 21.5223 21.1016 21.1045C21.5196 20.6866 21.781 20.1351 21.9147 19.4783C21.9318 19.3874 22.0682 19.3874 22.0852 19.4783C22.2218 20.1322 22.4804 20.6866 22.8983 21.1045C23.3163 21.5223 23.8678 21.7839 24.5245 21.9175C24.6154 21.9346 24.6154 22.0711 24.5245 22.0881C23.8706 22.2245 23.3163 22.4833 22.8983 22.9012C22.4804 23.3191 22.2189 23.8706 22.0852 24.5274Z" fill="#2F2F2F"/>
</svg>
