<svg width="138" height="53" viewBox="0 0 138 53" fill="none" xmlns="http://www.w3.org/2000/svg">
<g clip-path="url(#clip0_1_3767)">
<path d="M34.5802 9.35086C32.3516 11.4917 28.2623 18.0173 27.5935 22.3678C27.5792 22.4504 27.4621 22.4481 27.4502 22.3678C26.7814 18.0173 22.6921 11.4917 20.4635 9.35086C17.6043 6.60429 15.3184 13.9629 15.1417 14.5549C15.1345 14.5801 15.1178 14.5962 15.0915 14.6031C14.4753 14.7729 6.81498 16.9687 9.67415 19.7153C11.9027 21.8562 18.6959 25.7844 23.2247 26.4269C23.3107 26.4406 23.3083 26.5531 23.2247 26.5645C18.6959 27.207 11.9027 31.1352 9.67415 33.2761C6.81498 36.0227 14.4753 38.2185 15.0915 38.3883C15.1178 38.3952 15.1345 38.4113 15.1417 38.4366C15.3184 39.0285 17.6043 46.3871 20.4635 43.6406C22.6921 41.4997 26.7814 34.9741 27.4502 30.6236C27.4645 30.541 27.5816 30.5433 27.5935 30.6236C28.2623 34.9741 32.3516 41.4997 34.5802 43.6406C37.4394 46.3871 39.7253 39.0285 39.902 38.4366C39.9092 38.4113 39.9259 38.3952 39.9522 38.3883C40.5684 38.2185 48.2287 36.0227 45.3696 33.2761C43.1409 31.1352 36.3478 27.207 31.819 26.5645C31.733 26.5508 31.7354 26.4383 31.819 26.4269C36.3478 25.7844 43.1409 21.8562 45.3696 19.7153C48.2287 16.9687 40.5684 14.7729 39.9522 14.6031C39.9259 14.5962 39.9092 14.5801 39.902 14.5549C39.7253 13.9629 37.4394 6.60429 34.5802 9.35086ZM27.5935 28.5356C27.5792 28.609 27.4645 28.609 27.4502 28.5356C27.3356 28.0078 27.1182 27.5604 26.7671 27.2231C26.4159 26.8858 25.9525 26.6746 25.4007 26.5668C25.3243 26.5531 25.3243 26.443 25.4007 26.4291C25.9501 26.319 26.4159 26.1102 26.7671 25.773C27.1182 25.4356 27.3379 24.9905 27.4502 24.4605C27.4645 24.387 27.5792 24.387 27.5935 24.4605C27.7082 24.9882 27.9255 25.4356 28.2766 25.773C28.6278 26.1102 29.0912 26.3213 29.643 26.4291C29.7194 26.443 29.7194 26.5531 29.643 26.5668C29.0936 26.677 28.6278 26.8858 28.2766 27.2231C27.9255 27.5604 27.7058 28.0055 27.5935 28.5356Z" fill="#2F2F2F"/>
<path d="M63.7756 20.621V18.2508C63.7756 17.5047 63.6204 17.2892 63.0161 17.1734C62.6366 17.041 62.4982 16.9082 62.4982 16.7093C62.4982 16.5104 62.7053 16.2783 63.1539 16.1127C63.723 15.8806 64.3966 15.7482 64.983 15.7482C65.6041 15.7482 65.8804 16.0136 65.8804 16.5271C65.8804 17.0405 65.8111 17.7207 65.8111 18.5993V20.406C65.8111 21.5333 66.329 22.1465 67.1571 22.1465C68.3306 22.1465 68.8484 21.1688 68.8484 19.7597V18.2513C68.8484 17.5053 68.7106 17.2898 68.0889 17.174C67.7096 17.0416 67.5712 16.9087 67.5712 16.7098C67.5712 16.511 67.7782 16.2789 68.2268 16.1133C68.7965 15.8812 69.4696 15.7487 70.056 15.7487C70.677 15.7487 70.9533 16.0141 70.9533 16.5276C70.9533 17.041 70.8846 17.7213 70.8846 18.5998V21.1528C70.8846 22.0645 71.057 22.3797 71.4884 22.3797C71.7646 22.3797 71.8506 22.2467 72.0236 22.2467C72.2133 22.2467 72.3172 22.3625 72.3172 22.5619C72.3172 23.1424 71.5577 23.5733 70.7641 23.5733C70.0911 23.5733 69.4868 23.2088 69.2285 22.2971C69.1939 22.214 69.1593 22.1814 69.0901 22.1814C69.0382 22.1814 69.0036 22.1979 68.9349 22.2811C68.3139 23.0931 67.5544 23.5905 66.4674 23.5905C64.7761 23.5905 63.7749 22.6128 63.7749 20.6232L63.7756 20.621Z" fill="#2F2F2F"/>
<path d="M72.9047 22.9584C72.9047 22.7762 73.0079 22.6106 73.2496 22.5276L73.4739 22.4617C73.7847 22.3785 73.8879 22.2462 73.9572 22.0141C74.0437 21.6822 74.0777 21.351 74.0777 20.8536V18.2513C74.0777 17.5053 73.9225 17.2898 73.3182 17.174C72.9387 17.0416 72.8003 16.9087 72.8003 16.7098C72.8003 16.511 73.0074 16.2789 73.456 16.1133C74.0252 15.8811 74.6468 15.7487 75.2333 15.7487C75.8543 15.7487 76.0787 16.0141 76.0787 16.4616C76.0787 16.6605 76.0614 16.7768 76.0614 16.876C76.0614 16.9751 76.0787 17.0089 76.1479 17.0089C76.1998 17.0089 76.2344 16.959 76.3203 16.876C76.9414 16.1133 77.8046 15.7654 78.7538 15.7654C80.4798 15.7654 81.3425 17.025 81.3425 18.6163V20.8542C81.3425 21.3516 81.3598 21.6828 81.4457 22.0146C81.515 22.2467 81.6355 22.379 81.9462 22.4622L82.136 22.512C82.4122 22.6117 82.4981 22.7608 82.4981 22.9596C82.4981 23.175 82.3597 23.3905 81.963 23.3905H78.8565C78.4598 23.3905 78.3386 23.1585 78.3386 22.9596C78.3386 22.7608 78.4078 22.6444 78.6148 22.5453L78.7873 22.4954C79.0808 22.3957 79.1667 22.2634 79.2359 22.0479C79.2878 21.7659 79.3052 21.5172 79.3052 21.2025V18.9648C79.3052 17.8874 78.8392 17.2078 77.89 17.2078C76.8203 17.2078 76.1127 18.0697 76.1127 19.3459V21.2025C76.1127 21.5177 76.1127 21.7499 76.1646 22.0312C76.2338 22.2467 76.3197 22.3957 76.6305 22.4954L76.803 22.5453C77.01 22.645 77.0792 22.7608 77.0792 22.9596C77.0792 23.1585 76.9581 23.3905 76.5441 23.3905H73.4548C73.0581 23.3905 72.9024 23.175 72.9024 22.9596L72.9047 22.9584Z" fill="#2F2F2F"/>
<path d="M83.1043 19.7923C83.1043 17.6045 84.3989 15.7477 86.78 15.7477C87.4529 15.7477 88.04 15.9466 88.4367 16.2286C88.661 16.3614 88.7648 16.2451 88.7648 16.0629V13.3277C88.7648 12.5815 88.5578 12.3827 87.9021 12.267C87.5227 12.1673 87.3843 12.0182 87.3843 11.8028C87.3843 11.6039 87.5914 11.3719 88.0573 11.2062C88.6264 10.9908 89.4031 10.8417 89.9729 10.8417C90.6114 10.8417 90.8702 11.107 90.8702 11.7202C90.8702 12.2343 90.801 13.0297 90.801 14.2567V21.1523C90.801 22.064 90.9907 22.3791 91.4054 22.3791C91.6816 22.3791 91.7676 22.2462 91.9405 22.2462C92.1302 22.2462 92.2341 22.362 92.2341 22.5614C92.2341 23.1419 91.4919 23.5728 90.6291 23.5728C89.7665 23.5728 89.421 23.1086 89.1967 22.5121C89.1621 22.3963 89.1276 22.3631 89.0583 22.3631C88.9892 22.3631 88.9545 22.4129 88.9033 22.496C88.4027 23.1757 87.5919 23.59 86.5735 23.59C84.4335 23.59 83.1048 22.1974 83.1048 19.7941L83.1043 19.7923ZM88.8681 19.8589C88.8681 18.2675 88.2643 16.9248 86.9178 16.9248C85.8135 16.9248 85.2956 17.9025 85.2956 19.3448C85.2956 20.9196 85.934 22.3288 87.1767 22.3288C88.2124 22.3288 88.8681 21.4004 88.8681 19.8589Z" fill="#2F2F2F"/>
<path d="M93.0102 21.7156C93.0102 20.3563 94.2356 19.4945 97.0313 19.2624C97.6523 19.2125 97.7735 19.1632 97.7735 18.7649C97.808 17.7209 97.4453 16.9747 96.3409 16.9747C95.4783 16.9747 94.9432 17.4057 94.874 18.0022C94.8047 18.4664 94.4945 18.6652 94.0972 18.6652C93.6659 18.6652 93.2691 18.4331 93.2691 17.8366C93.2691 16.6263 94.874 15.7478 96.5999 15.7478C98.6361 15.7478 99.7923 16.6097 99.7923 18.7483V21.1518C99.7923 22.13 99.9994 22.3786 100.396 22.3786C100.69 22.3786 100.758 22.2457 100.931 22.2457C101.121 22.2457 101.225 22.3615 101.225 22.5609C101.225 23.1414 100.5 23.5723 99.6373 23.5723C98.8604 23.5723 98.3772 23.1746 98.2047 22.6107C98.1528 22.4618 98.1016 22.4285 98.0323 22.4285C97.9804 22.4285 97.9285 22.4618 97.808 22.5941C97.3075 23.1248 96.4275 23.5889 95.2886 23.5889C93.8048 23.5889 93.0107 22.7603 93.0107 21.7156H93.0102ZM97.8075 20.605C97.8247 20.1741 97.7556 20.0245 97.4453 20.0245C96.3409 20.0245 95.0983 20.4056 95.0983 21.4835C95.0983 22.0801 95.4604 22.4783 96.1507 22.4783C97.0826 22.4783 97.7901 21.8153 97.8075 20.605Z" fill="#2F2F2F"/>
<path d="M101.657 19.7098C101.657 17.4886 103.365 15.7482 105.66 15.7482C107.473 15.7482 108.577 16.8256 108.749 17.7207C108.888 18.3505 108.508 18.7155 107.991 18.7155C107.542 18.7155 107.248 18.5333 107.162 18.0027C107.024 17.2233 106.506 16.9585 105.764 16.9585C104.539 16.9585 103.849 17.9866 103.849 19.3952C103.849 21.1356 104.815 22.3126 106.282 22.3126C107.111 22.3126 107.715 22.0141 108.059 21.5997C108.197 21.4508 108.301 21.3842 108.474 21.3842C108.749 21.3842 108.992 21.633 108.802 22.0307C108.491 22.7436 107.369 23.5888 105.678 23.5888C103.262 23.5888 101.657 22.1304 101.657 19.7098Z" fill="#2F2F2F"/>
<path d="M109.146 26.8542C109.146 26.672 109.233 26.5058 109.508 26.3734C110.544 25.9093 110.803 25.0308 110.803 23.7047L110.821 19.0635C110.821 17.6051 110.907 17.3065 109.837 17.1403C109.595 17.0744 109.475 16.958 109.457 16.7924C109.457 16.6434 109.544 16.4939 109.716 16.3615C110.217 15.9804 111.391 15.7317 112.012 15.7317C112.633 15.7317 112.926 16.0468 112.908 16.4445C112.874 17.1076 112.857 18.0028 112.857 19.0474L112.839 23.2078C112.839 26.0921 111.424 26.9378 109.906 27.2691C109.371 27.3849 109.146 27.1533 109.146 26.8548V26.8542Z" fill="#2F2F2F"/>
<path d="M114.358 21.7156C114.358 20.3563 115.584 19.4945 118.379 19.2624C119 19.2125 119.122 19.1632 119.122 18.7649C119.156 17.7209 118.794 16.9747 117.689 16.9747C116.826 16.9747 116.292 17.4057 116.222 18.0022C116.154 18.4664 115.843 18.6652 115.446 18.6652C115.015 18.6652 114.618 18.4331 114.618 17.8366C114.618 16.6263 116.223 15.7478 117.948 15.7478C119.985 15.7478 121.141 16.6097 121.141 18.7483V21.1518C121.141 22.13 121.348 22.3786 121.745 22.3786C122.039 22.3786 122.107 22.2457 122.281 22.2457C122.471 22.2457 122.574 22.3615 122.574 22.5609C122.574 23.1414 121.849 23.5723 120.986 23.5723C120.209 23.5723 119.726 23.1746 119.554 22.6107C119.502 22.4618 119.451 22.4285 119.382 22.4285C119.329 22.4285 119.279 22.4618 119.157 22.5941C118.657 23.1248 117.777 23.5889 116.638 23.5889C115.154 23.5889 114.36 22.7603 114.36 21.7156H114.358ZM119.156 20.605C119.174 20.1741 119.104 20.0245 118.794 20.0245C117.689 20.0245 116.447 20.4056 116.447 21.4835C116.447 22.0801 116.809 22.4783 117.5 22.4783C118.432 22.4783 119.139 21.8153 119.157 20.605H119.156Z" fill="#2F2F2F"/>
<path d="M53.2479 37.8868C53.2479 37.257 53.6619 36.9087 54.1798 36.892C54.6803 36.892 55.0944 37.1739 55.1982 37.8203C55.3187 39.1963 56.3025 39.8759 57.6831 39.8759C58.8565 39.8759 59.7365 39.2627 59.7365 38.1355C59.7365 36.8593 58.4938 36.3952 56.9062 35.7653C55.2841 35.1023 53.4376 34.3396 53.4376 32.2514C53.4376 30.3453 55.0598 28.986 57.5965 28.986C59.9089 28.986 61.6003 30.2295 61.6349 31.6881C61.6522 32.3677 61.1863 32.6496 60.7203 32.6496C60.3408 32.6496 59.8922 32.4508 59.7712 31.8542C59.5987 30.8594 58.9771 30.0972 57.6138 30.0972C56.4749 30.0972 55.6295 30.6771 55.6295 31.7051C55.6295 33.0146 56.9241 33.4456 58.3906 34.0427C60.0646 34.739 61.8938 35.4519 61.8938 37.5567C61.8938 39.43 60.2717 40.9882 57.476 40.9882C55.077 40.9882 53.2825 39.8942 53.2479 37.8885V37.8868Z" fill="#2F2F2F"/>
<path d="M62.6015 40.3237C62.6015 40.1747 62.6707 40.0085 62.8258 39.8096L66.7258 34.6544C66.8296 34.5054 66.7604 34.4057 66.6053 34.4057H65.2766C64.5691 34.4057 64.362 34.6046 63.9307 35.848C63.8442 36.1134 63.6891 36.2126 63.4128 36.2126C63.1194 36.2126 62.8777 36.0469 62.9469 35.6658L63.2232 33.7427C63.2751 33.4441 63.3782 33.345 63.7237 33.345H69.1599C69.522 33.345 69.6951 33.5272 69.6951 33.7593C69.6951 33.9249 69.6259 34.0905 69.4188 34.3558L65.5535 39.4779C65.4669 39.5936 65.5016 39.7265 65.6918 39.7265H67.2448C68.0902 39.7265 68.3145 39.5942 68.8669 38.0854C68.9875 37.8034 69.1432 37.7208 69.3675 37.7208C69.6783 37.7208 69.8161 37.8865 69.7816 38.2349L69.5399 40.3397C69.5054 40.6881 69.2983 40.7873 69.0047 40.7873H63.1892C62.8097 40.7873 62.6021 40.5719 62.6021 40.3231L62.6015 40.3237Z" fill="#2F2F2F"/>
<path d="M70.7475 37.1082C70.7475 34.887 72.4562 33.1466 74.7513 33.1466C76.5632 33.1466 77.6681 34.224 77.8405 35.1191C77.9788 35.7488 77.5988 36.1139 77.081 36.1139C76.6324 36.1139 76.3388 35.9317 76.2529 35.401C76.1152 34.6217 75.5973 34.357 74.855 34.357C73.6297 34.357 72.9394 35.385 72.9394 36.7936C72.9394 38.5339 73.9059 39.711 75.3729 39.711C76.201 39.711 76.8054 39.4124 77.1502 38.9982C77.288 38.8491 77.3919 38.7827 77.5643 38.7827C77.8405 38.7827 78.0821 39.0313 77.8924 39.429C77.5816 40.142 76.46 40.9873 74.7686 40.9873C72.3523 40.9873 70.7475 39.5288 70.7475 37.1082Z" fill="#2F2F2F"/>
<path d="M78.7372 40.3237C78.7372 40.1747 78.8064 40.0085 78.9615 39.8096L82.8615 34.6544C82.9653 34.5054 82.8961 34.4057 82.7409 34.4057H81.4123C80.7047 34.4057 80.4978 34.6046 80.0664 35.848C79.9799 36.1134 79.8247 36.2126 79.5485 36.2126C79.255 36.2126 79.0134 36.0469 79.0826 35.6658L79.3588 33.7427C79.4107 33.4441 79.5139 33.345 79.8594 33.345H85.2956C85.6578 33.345 85.8307 33.5272 85.8307 33.7593C85.8307 33.9249 85.7616 34.0905 85.5545 34.3558L81.6892 39.4779C81.6026 39.5936 81.6373 39.7265 81.8276 39.7265H83.3805C84.2259 39.7265 84.4502 39.5942 85.0026 38.0854C85.1232 37.8034 85.2788 37.7208 85.5032 37.7208C85.814 37.7208 85.9518 37.8865 85.9173 38.2349L85.6756 40.3397C85.6411 40.6881 85.434 40.7873 85.1404 40.7873H79.3248C78.9454 40.7873 78.7378 40.5719 78.7378 40.3231L78.7372 40.3237Z" fill="#2F2F2F"/>
<path d="M89.5406 42.8434C89.5406 42.0314 90.1444 41.484 90.6796 41.0863C90.8 41.0199 90.7487 40.954 90.6449 40.9374C88.4703 40.8382 86.8827 39.495 86.8827 37.1082C86.8827 34.4893 88.7984 33.1466 90.8174 33.1466C92.8362 33.1466 94.286 34.3729 94.286 36.4784C94.286 37.1414 94.0271 37.3402 93.3368 37.3402H89.4368C89.1952 37.3402 89.092 37.4399 89.092 37.6554C89.092 38.8985 90.0239 39.711 91.4909 39.711C92.3708 39.711 92.9234 39.4457 93.3027 39.0147C93.6995 38.6171 94.3212 38.8657 94.0449 39.4457C93.4758 40.6394 90.9558 41.0537 90.9558 42.3299C90.9558 42.7276 91.232 42.9597 91.6287 42.9597C91.9741 42.9597 92.2671 42.8107 92.5606 42.6279C92.7503 42.495 92.9574 42.5121 93.0784 42.5947C93.2336 42.7104 93.2855 42.8932 93.1817 43.1414C92.8536 43.7552 91.9217 44.1363 91.1627 44.1363C90.1444 44.1363 89.5406 43.5723 89.5406 42.8429V42.8434ZM92.3023 36.0469C92.3023 34.9861 91.6812 34.3558 90.7666 34.3558C89.8001 34.3558 89.2137 35.052 89.1272 36.0469C89.1272 36.279 89.2477 36.3787 89.5066 36.3787H91.9055C92.1818 36.3787 92.3023 36.279 92.3023 36.0469Z" fill="#2F2F2F"/>
<path d="M95.2183 39.0473C95.2183 38.5006 95.5805 38.2021 96.0811 38.2021C96.4778 38.2021 96.8059 38.3344 96.9956 38.8651C97.1507 39.6605 97.7551 39.9923 98.6005 39.9923C99.4459 39.9923 99.8605 39.6444 99.8605 39.0473C99.8605 38.2685 99.0497 38.0691 98.0833 37.8038C96.8232 37.4886 95.374 37.0909 95.374 35.4004C95.374 34.1568 96.4611 33.146 98.6011 33.146C100.448 33.146 101.656 33.9579 101.673 34.853C101.69 35.3998 101.276 35.5987 100.897 35.5987C100.569 35.5987 100.258 35.4662 100.034 35.0347C99.8098 34.488 99.4297 34.1397 98.6536 34.1397C97.8774 34.1397 97.4974 34.4875 97.4974 35.0347C97.4974 35.7642 98.2395 35.9465 99.2406 36.1952C100.517 36.527 102.002 36.9413 102.002 38.6318C102.002 39.9911 100.88 40.9854 98.5676 40.9854C96.2552 40.9854 95.2369 40.1069 95.2195 39.0462L95.2183 39.0473ZM97.0135 31.4554C97.6692 30.7092 98.5492 29.8474 99.1709 29.2841C100.068 28.5712 101.017 29.6153 100.396 30.1459C99.6367 30.8422 98.36 31.6874 97.7043 32.0525C97.1519 32.3344 96.6686 31.837 97.0141 31.456L97.0135 31.4554Z" fill="#2F2F2F"/>
<path d="M102.708 40.3569C102.708 40.158 102.794 40.009 103.087 39.8927L103.26 39.8595C103.588 39.7598 103.708 39.6274 103.778 39.3621C103.847 39.0469 103.881 38.7322 103.881 38.2515V30.726C103.881 29.98 103.657 29.7811 103.001 29.6653C102.622 29.5656 102.501 29.4166 102.501 29.2012C102.501 29.0023 102.691 28.7702 103.157 28.6046C103.743 28.3891 104.503 28.24 105.089 28.24C105.711 28.24 105.986 28.5054 105.986 29.1185C105.986 29.6326 105.9 30.428 105.9 31.655V38.2526C105.9 38.7333 105.935 39.048 106.004 39.3632C106.074 39.6285 106.194 39.7609 106.522 39.8606L106.729 39.9265C107.005 40.0262 107.075 40.1752 107.075 40.3575C107.075 40.5729 106.936 40.7884 106.539 40.7884H103.243C102.846 40.7884 102.708 40.5729 102.708 40.3575V40.3569Z" fill="#2F2F2F"/>
<path d="M107.885 40.3569C107.885 40.1747 107.989 40.009 108.231 39.9259L108.455 39.86C108.748 39.7936 108.852 39.6778 108.939 39.429C109.007 39.1139 109.059 38.7827 109.059 38.252V35.6497C109.059 34.9036 108.904 34.6881 108.3 34.5723C107.92 34.44 107.782 34.3071 107.782 34.1082C107.782 33.9093 107.988 33.6772 108.437 33.5116C109.007 33.2795 109.68 33.1472 110.266 33.1472C110.887 33.1472 111.164 33.4125 111.164 33.926C111.164 34.4395 111.095 35.1197 111.095 35.9981V38.2525C111.095 38.7832 111.129 39.1145 111.216 39.4296C111.302 39.6783 111.405 39.7941 111.699 39.8606L111.923 39.9265C112.165 40.0095 112.252 40.1752 112.252 40.3574C112.252 40.5729 112.113 40.7884 111.716 40.7884H108.437C108.041 40.7884 107.885 40.5729 107.885 40.3574V40.3569ZM108.542 30.6269C108.542 29.9805 109.094 29.4997 109.837 29.4997C110.579 29.4997 111.147 29.9805 111.147 30.6269C111.147 31.2733 110.595 31.7541 109.837 31.7541C109.078 31.7541 108.542 31.2567 108.542 30.6269Z" fill="#2F2F2F"/>
<path d="M115.652 40.4065L113.753 35.6158C113.598 35.2348 113.477 35.0026 113.304 34.7373C113.166 34.5219 113.011 34.3728 112.718 34.3064L112.545 34.2565C112.269 34.1734 112.148 34.0244 112.148 33.7923C112.148 33.5768 112.303 33.3448 112.701 33.3448H116.084C116.463 33.3448 116.619 33.5602 116.619 33.7757C116.619 33.9912 116.516 34.1236 116.239 34.2067L116.049 34.2565C115.774 34.323 115.704 34.4388 115.704 34.621C115.704 34.8199 115.808 35.2015 116.015 35.7648L116.809 38.1183C116.878 38.284 117.051 38.284 117.12 38.1183L118.276 35.4496C118.448 35.0685 118.483 34.919 118.345 34.621C118.276 34.4553 118.138 34.323 117.879 34.2565L117.673 34.19C117.431 34.0903 117.344 33.9912 117.344 33.7757C117.344 33.5602 117.499 33.3448 117.879 33.3448H120.727C121.106 33.3448 121.262 33.5602 121.262 33.7757C121.262 33.9745 121.176 34.1075 120.968 34.19L120.675 34.2565C120.382 34.323 120.296 34.4719 120.296 34.6376C120.296 34.8032 120.364 35.0685 120.503 35.4496L121.573 38.135C121.642 38.3007 121.814 38.3007 121.866 38.135L122.918 35.3333C123.039 35.0182 123.108 34.7866 123.108 34.6371C123.108 34.4714 123.021 34.3219 122.728 34.2559L122.522 34.2061C122.263 34.1064 122.177 33.974 122.177 33.7751C122.177 33.5596 122.332 33.3443 122.712 33.3443H125.214C125.611 33.3443 125.749 33.5596 125.749 33.7751C125.749 33.9906 125.628 34.1397 125.369 34.2394L125.197 34.2892C124.904 34.3722 124.748 34.5379 124.611 34.77C124.438 35.0519 124.299 35.3173 124.109 35.7981L122.281 40.3899C122.091 40.8375 121.797 40.9865 121.453 40.9865C121.073 40.9865 120.797 40.8873 120.538 40.3068L119.054 36.8421C119.019 36.7591 118.984 36.7424 118.951 36.7424C118.898 36.7424 118.864 36.7591 118.829 36.8588L117.311 40.3229C117.086 40.837 116.862 40.9859 116.483 40.9859C116.103 40.9859 115.827 40.8702 115.655 40.406L115.652 40.4065Z" fill="#2F2F2F"/>
<path d="M126.058 39.0475C126.058 38.5008 126.421 38.2023 126.921 38.2023C127.318 38.2023 127.646 38.3346 127.836 38.8653C127.991 39.6607 128.595 39.9925 129.44 39.9925C130.285 39.9925 130.7 39.6446 130.7 39.0475C130.7 38.2687 129.889 38.0693 128.923 37.804C127.663 37.4888 126.214 37.0911 126.214 35.4006C126.214 34.157 127.3 33.1462 129.44 33.1462C131.287 33.1462 132.495 33.9581 132.513 34.8532C132.529 35.4 132.116 35.5989 131.736 35.5989C131.407 35.5989 131.097 35.4664 130.873 35.035C130.648 34.4882 130.269 34.1399 129.493 34.1399C128.716 34.1399 128.336 34.4877 128.336 35.035C128.336 35.7644 129.078 35.9467 130.079 36.1954C131.356 36.5272 132.84 36.9415 132.84 38.632C132.84 39.9913 131.718 40.9856 129.406 40.9856C127.094 40.9856 126.075 40.1071 126.058 39.0464V39.0475Z" fill="#2F2F2F"/>
<path d="M133.635 40.3568C133.635 40.1746 133.739 40.0089 133.98 39.9258L134.204 39.8599C134.498 39.7935 134.601 39.6777 134.687 39.4289C134.757 39.1138 134.808 38.7826 134.808 38.2519V35.6496C134.808 34.9035 134.653 34.688 134.048 34.5722C133.669 34.4399 133.531 34.3069 133.531 34.1081C133.531 33.9092 133.738 33.6771 134.186 33.5115C134.756 33.2794 135.429 33.1471 136.016 33.1471C136.637 33.1471 136.913 33.4124 136.913 33.9259C136.913 34.4394 136.844 35.1196 136.844 35.998V38.2524C136.844 38.7831 136.878 39.1143 136.964 39.4295C137.051 39.6782 137.154 39.794 137.447 39.8605L137.672 39.9264C137.914 40.0094 138 40.1751 138 40.3573C138 40.5728 137.862 40.7883 137.465 40.7883H134.186C133.789 40.7883 133.634 40.5728 133.634 40.3573L133.635 40.3568Z" fill="#2F2F2F"/>
<path d="M135.913 31.5884C135.898 31.6587 135.796 31.6587 135.781 31.5884C135.673 31.0688 135.459 30.6301 135.116 30.3005C134.773 29.9709 134.316 29.7649 133.775 29.6612C133.701 29.6474 133.701 29.5488 133.775 29.535C134.316 29.4309 134.773 29.2253 135.116 28.8958C135.459 28.5662 135.673 28.1275 135.781 27.6079C135.796 27.5376 135.898 27.5376 135.913 27.6079C136.021 28.1275 136.235 28.5662 136.578 28.8958C136.921 29.2253 137.378 29.4314 137.919 29.535C137.993 29.5488 137.993 29.6474 137.919 29.6612C137.378 29.7654 136.921 29.9709 136.578 30.3005C136.236 30.6301 136.021 31.0688 135.913 31.5884Z" fill="#2F2F2F"/>
<path d="M53.2134 22.9088C53.2134 22.6601 53.3344 22.4613 53.662 22.3947L54.076 22.3117C54.5593 22.2286 54.7317 22.0795 54.8355 21.8142C54.9387 21.4991 55.0079 21.1512 55.0079 20.5541V14.6201C55.0079 14.0235 54.9387 13.6751 54.8355 13.3604C54.7317 13.1118 54.5593 12.9462 54.076 12.863L53.662 12.7799C53.3339 12.7135 53.2134 12.5146 53.2134 12.2659C53.2134 12.0172 53.3858 11.7851 53.6965 11.7851H61.8246C62.1528 11.7851 62.2387 11.9009 62.2734 12.1169L62.6355 14.5204C62.6874 15.0012 62.4458 15.2498 62.0144 15.2498C61.7382 15.2498 61.4965 15.1175 61.3934 14.8023C60.8927 13.3765 60.6684 12.8791 59.3912 12.8791H58.4246C57.4408 12.8791 57.1819 13.2436 57.1819 14.1055V16.7742C57.1819 17.0063 57.2858 17.122 57.5274 17.122H58.597C59.3739 17.122 59.477 16.741 59.5808 15.945C59.7014 15.3978 60.5474 15.4309 60.5474 16.0774V19.1937C60.5474 19.8568 59.6846 19.8733 59.5808 19.3427C59.4943 18.4809 59.3739 18.149 58.597 18.149H57.5274C57.2858 18.149 57.1819 18.2648 57.1819 18.4809V20.5031C57.1819 21.0504 57.2512 21.3816 57.3543 21.6968C57.4927 22.0446 57.7517 22.1942 58.3555 22.2601L59.1149 22.3764C59.5463 22.4423 59.6501 22.6417 59.6501 22.8905C59.6501 23.1392 59.5117 23.3879 59.1149 23.3879H53.6793C53.3858 23.3879 53.2134 23.1558 53.2134 22.9071V22.9088Z" fill="#2F2F2F"/>
<path d="M110.264 13.1486C110.264 12.5023 110.817 12.0214 111.559 12.0214C112.301 12.0214 112.871 12.5023 112.871 13.1486C112.871 13.7951 112.318 14.2759 111.559 14.2759C110.8 14.2759 110.264 13.7785 110.264 13.1486Z" fill="#2F2F2F"/>
</g>
<defs>
<clipPath id="clip0_1_3767">
<rect width="138" height="52.8846" fill="white" transform="translate(0 0.0576916)"/>
</clipPath>
</defs>
</svg>
