<svg width="1186" height="1137" viewBox="0 0 1186 1137" fill="none" xmlns="http://www.w3.org/2000/svg">
<path d="M611.34 1122.31C607.233 1141.9 578.771 1141.9 574.663 1122.31C544.441 977.739 484.875 855.648 389.22 763.946C293.566 672.216 166.222 614.899 15.4045 586.058C-5.13484 582.203 -5.13484 554.769 15.4045 550.914C166.222 521.96 293.566 464.755 389.22 373.053C484.875 281.352 544.441 159.261 574.663 14.688C578.771 -4.89601 607.233 -4.89601 611.34 14.688C641.563 159.261 701.125 281.352 796.78 373.053C892.434 464.755 1019.78 522.1 1170.6 550.914C1191.13 554.769 1191.13 582.203 1170.6 586.058C1019.78 615.04 892.434 672.216 796.78 763.946C701.419 855.648 641.563 977.739 611.34 1122.31Z" fill="#2F2F2F"/>
<path d="M577.109 15.1982C580.664 -1.73394 605.341 -1.7328 608.894 15.2012C639.193 160.142 698.949 282.728 795.05 374.857C891.142 466.978 1018.97 524.491 1170.13 553.369L1170.13 553.371C1187.96 556.716 1187.96 580.256 1170.13 583.601L1170.12 583.603C1018.97 612.649 891.143 669.991 795.05 762.142L795.047 762.144C699.244 854.27 639.194 976.855 608.894 1121.8C605.341 1138.73 580.663 1138.73 577.109 1121.8H577.11C546.811 976.86 487.051 854.271 390.95 762.142C294.858 669.992 167.028 612.508 15.874 583.603L15.8652 583.601C-1.95503 580.256 -1.95507 556.716 15.8652 553.371L15.876 553.369C167.027 524.351 294.857 466.979 390.95 374.857C487.051 282.728 546.811 160.14 577.11 15.1992L577.109 15.1982Z" stroke="url(#paint0_linear_0_1)" stroke-width="5"/>
<defs>
<linearGradient id="paint0_linear_0_1" x1="593" y1="0" x2="593" y2="1137" gradientUnits="userSpaceOnUse">
<stop stop-color="white" stop-opacity="0"/>
<stop offset="1" stop-color="#2F2F2F"/>
</linearGradient>
</defs>
</svg>
