<svg width="92" height="89" viewBox="0 0 92 89" fill="none" xmlns="http://www.w3.org/2000/svg">
<path d="M47.4227 87.8503C47.104 89.3832 44.8962 89.3832 44.5776 87.8503C42.2332 76.5337 37.6126 66.9768 30.1925 59.7988C22.7724 52.6185 12.8941 48.132 1.19495 45.8744C-0.398318 45.5726 -0.398318 43.4252 1.19495 43.1234C12.8941 40.857 22.7724 36.3792 30.1925 29.2012C37.6126 22.0231 42.2332 12.4663 44.5776 1.14972C44.8962 -0.383241 47.104 -0.383241 47.4227 1.14972C49.7671 12.4663 54.3875 22.0231 61.8075 29.2012C69.2276 36.3792 79.1059 40.868 90.8051 43.1234C92.3983 43.4252 92.3983 45.5726 90.8051 45.8744C79.1059 48.143 69.2276 52.6185 61.8075 59.7988C54.4102 66.9768 49.7671 76.5337 47.4227 87.8503Z" fill="#8A38F5"/>
</svg>
