<svg width="440" height="560" viewBox="0 0 440 560" fill="none" xmlns="http://www.w3.org/2000/svg">
<g clip-path="url(#clip0_7_63405)">
<path d="M379.099 19.8043C371.59 19.3916 364.068 19.2581 356.547 19.0638C348.625 18.7968 340.703 19.0638 332.782 19.2459C326.74 19.3187 320.699 19.1367 314.657 19.0517C306.566 18.9182 298.474 18.5783 290.383 18.9182C277.038 19.5372 263.73 20.7996 250.398 21.4551C234.433 22.3533 218.505 24.3804 202.492 24.1376C193.539 24.1012 184.598 23.6885 175.657 23.7371C165.2 23.9556 154.767 24.6232 144.31 24.429C129.328 24.1619 114.358 23.4943 99.3758 23.4458C84.2602 23.3729 69.1325 23.8463 54.0169 23.4943C43.5961 23.3122 33.139 23.1666 22.7667 21.977C14.7965 21.1031 6.86261 19.8528 -1.11977 19.0274C-9.53887 18.2991 -18.0186 18.0078 -26.462 18.3598C-49.9118 19.2459 -73.3373 17.0003 -96.787 17.5587C-105.57 17.7529 -114.341 18.202 -123.112 18.7483V19.2702C-113.819 18.7118 -104.539 18.202 -95.2221 18.0442C-81.441 17.7408 -67.6841 18.4933 -53.9151 18.8454C-46.8547 18.9425 -39.7943 19.1731 -32.7339 19.0396C-27.6873 18.9303 -22.6407 18.6997 -17.594 18.6876C-13.5786 18.7604 -9.56313 18.9667 -5.55981 19.1731C5.05505 19.8892 15.5486 21.8314 26.1514 22.8146C35.8321 23.7249 45.5857 23.8342 55.3028 23.992C70.0302 24.3197 84.7697 23.8342 99.4971 23.9192C114.443 23.9677 129.364 24.6353 144.298 24.9024C154.961 25.1087 165.6 24.4047 176.252 24.1983C185.12 24.1983 193.975 24.5746 202.831 24.611C218.808 24.8295 234.688 22.8024 250.616 21.9163C263.985 21.2609 277.317 19.9742 290.686 19.3794C298.79 19.0517 306.893 19.4159 314.997 19.5372C321.16 19.6222 327.335 19.8043 333.497 19.7072C341.383 19.513 349.256 19.2823 357.141 19.5494C364.408 19.7315 371.687 19.865 378.953 20.2655C388.112 20.8118 397.259 21.5643 406.418 21.9528C417.422 22.4868 428.425 22.5354 439.428 22.6689V22.1591C428.328 22.0256 417.24 21.9892 406.152 21.4429C397.114 21.0667 388.1 20.3141 379.075 19.78L379.099 19.8043Z" fill="#2F2F2F"/>
<path d="M402.767 2.99272C390.599 3.04127 378.432 2.96844 366.264 3.13838C354.715 3.2719 343.166 3.70888 331.617 3.25976C324.763 2.98058 317.909 2.6043 311.054 2.58002C301.386 2.49505 291.729 2.81065 282.061 3.00486C271.227 3.23548 260.394 2.98058 249.549 2.89561C241.894 2.81065 234.227 2.64071 226.572 2.94417C211.893 3.46611 197.202 4.54642 182.511 4.01233C171.824 3.44184 161.148 2.64071 150.448 2.50719C142.806 2.43436 135.151 2.7014 127.508 2.72568C118.022 2.77423 108.523 2.55574 99.0482 2.21587C84.3087 1.73034 69.5692 1.15984 54.8297 1.25695C44.0207 1.57254 33.2239 2.08235 22.4149 2.16732C7.97871 2.43436 -6.45751 2.32511 -20.8816 2.62857C-33.668 2.88348 -46.4422 3.55108 -59.2286 3.24762C-68.3756 3.13838 -77.4862 2.42222 -86.621 1.90028C-94.3001 1.48757 -101.979 1.24481 -109.658 1.03846C-114.147 0.941352 -118.635 0.977767 -123.124 1.06273V1.59682C-122.032 1.57254 -120.928 1.54827 -119.836 1.52399C-108.324 1.39047 -96.8113 1.91241 -85.3108 2.50719C-75.3025 3.15052 -65.2942 3.79384 -55.2495 3.8424C-42.5602 3.95164 -29.883 3.2719 -17.1937 3.07769C-3.49748 2.88348 10.1987 2.91989 23.8828 2.66499C34.3764 2.58002 44.8578 2.0338 55.3514 1.76675C70.2486 1.69392 85.1336 2.27656 100.019 2.76209C109.178 3.07769 118.337 3.28404 127.508 3.23548C134.981 3.22335 142.442 2.9563 149.915 3.017C161.039 3.10196 172.127 4.0002 183.239 4.54642C198.391 5.05622 213.519 3.85454 228.659 3.39328C237.648 3.12624 246.649 3.41756 255.639 3.47825C262.59 3.5268 269.529 3.64819 276.48 3.61177C285.178 3.49039 293.877 3.21121 302.575 3.10196C313.032 2.90775 323.477 3.44184 333.922 3.85454C344.937 4.17013 355.964 3.76957 366.98 3.64819C379.026 3.49039 391.072 3.55108 403.119 3.50253C414.801 3.55108 426.484 4.02447 438.166 4.24296C438.591 4.24296 439.015 4.2551 439.428 4.26724V3.75743C439.003 3.75743 438.578 3.74529 438.166 3.73315C426.362 3.51466 414.571 3.04127 402.767 2.99272Z" fill="#2F2F2F"/>
<path d="M347.303 45.7556C326.037 45.9983 304.771 46.5567 283.504 46.1197C261.874 45.9133 240.232 46.1197 218.602 45.7677C200.393 45.5128 182.196 45.6706 163.987 45.6584C144.128 45.5128 124.269 45.3064 104.41 45.1122C89.1491 44.9908 73.888 45.1972 58.6268 44.9787C40.0538 44.7117 21.4687 43.9105 2.89571 44.3597C-10.4244 44.7481 -23.7446 45.3429 -37.0647 45.3064C-46.7091 45.2822 -56.3535 44.9787 -65.9978 44.918C-76.3579 44.8452 -86.7302 45.0273 -97.0903 45.27C-105.764 45.4035 -114.45 45.4035 -123.124 45.3428V45.8405C-117.689 45.8769 -112.242 45.9133 -106.807 45.9133C-91.425 45.7798 -76.0425 45.2093 -60.6479 45.5006C-51.2341 45.6099 -41.8081 45.9133 -32.3942 45.8041C-21.2819 45.7677 -10.1818 45.2822 0.93045 44.9301C19.6005 44.4082 38.2705 45.1851 56.9406 45.4764C73.3784 45.7556 89.8163 45.5006 106.254 45.6584C125.725 45.8648 145.208 46.059 164.678 46.2047C182.657 46.1925 200.623 46.059 218.602 46.3018C239.504 46.6174 260.406 46.4596 281.321 46.6295C303.315 47.0908 325.309 46.5567 347.303 46.2896C364.202 45.8041 381.088 46.7509 397.987 46.8601C411.805 46.8844 425.622 47.1029 439.44 47.2971V46.7873C425.501 46.5931 411.574 46.3746 397.635 46.3503C380.858 46.2289 364.092 45.2943 347.303 45.7798V45.7556Z" fill="#2F2F2F"/>
<path d="M358.694 62.5308C335.863 62.3608 313.056 61.4869 290.237 60.9406C282.558 60.7707 274.879 61.0013 267.2 60.7707C255.105 60.2002 242.998 59.8361 230.879 59.4962C224.413 59.3141 217.947 59.0471 211.493 59.1442C202.055 59.2656 192.629 59.8482 183.191 60.2002C172.77 60.443 162.349 59.9453 151.928 60.3701C135.879 61.1106 119.817 61.1591 103.755 61.4262C88.0209 61.9117 72.408 61.1106 56.6979 60.6493C44.3483 60.3823 32.0108 60.9042 19.6733 61.1834C12.4916 61.3776 5.30985 61.3776 -1.87186 61.147C-7.41586 60.9528 -12.9477 60.4794 -18.4917 60.2973C-28.3666 60.0181 -38.2657 60.1759 -48.1406 60.1759C-62.1037 60.1517 -76.0546 60.8435 -90.0177 60.88C-95.8286 60.8435 -101.64 60.4187 -107.45 60.1759C-112.679 60.0181 -117.908 60.1031 -123.136 60.3701V60.8678C-122.615 60.8435 -122.093 60.8193 -121.571 60.795C-117.046 60.6372 -112.509 60.5279 -107.984 60.6736C-101.239 60.9528 -94.4942 61.4505 -87.7371 61.414C-72.4759 61.1713 -57.2148 60.6129 -41.9415 60.6736C-32.0666 60.6979 -22.1796 60.4915 -12.3169 61.1106C7.31152 62.6036 26.9885 61.3169 46.6411 61.0863C62.3511 60.9528 78.0247 62.2637 93.7347 62.0816C112.296 61.766 130.856 61.8146 149.405 60.9771C160.784 60.4551 172.176 60.9649 183.567 60.71C193.09 60.3337 202.613 59.7754 212.148 59.654C219.366 59.5933 226.572 59.8968 233.79 60.1031C245.546 60.3823 257.289 60.88 269.032 61.3291C276.298 61.4869 283.577 61.2927 290.844 61.4747C313.008 62.0331 335.159 62.8342 357.323 63.0527C378.092 63.0163 398.861 63.2469 419.617 63.077C426.229 63.0163 432.84 62.9192 439.44 62.8221V62.3123C433.095 62.4094 426.763 62.4943 420.418 62.555C399.843 62.7492 379.281 62.5065 358.706 62.555L358.694 62.5308Z" fill="#2F2F2F"/>
<path d="M425.453 80.0463C414.983 79.6457 404.514 79.5608 394.045 79.4394C375.92 78.7475 357.784 78.9296 339.672 79.5486C329.894 79.8035 320.117 79.755 310.351 79.4758C304.103 79.3666 297.88 78.9539 291.632 78.9781C281.794 78.9781 271.992 79.8521 262.178 80.3012C252.618 80.8474 243.047 81.0902 233.475 80.8717C225.25 80.5561 217.049 79.9128 208.824 79.5365C197.19 79.0752 185.556 79.755 173.935 80.2284C164.97 80.4711 155.992 80.4711 147.027 80.0342C138.972 79.5608 130.941 78.699 122.874 78.3591C114.03 77.9221 105.175 78.0799 96.3308 77.9464C81.5428 77.6429 66.7548 77.91 51.9789 78.5047C40.1509 78.966 28.3107 79.2573 16.4706 79.5729C4.41212 80.022 -7.64637 80.4711 -19.7049 80.5075C-26.8745 80.5075 -34.044 80.8717 -41.2136 81.0295C-51.4039 81.1752 -61.6063 81.4543 -71.7966 81.4543C-81.6957 81.2723 -91.607 81.2601 -101.494 80.8838C-108.688 80.6532 -115.882 80.2405 -123.076 79.8885V80.3983C-117.665 80.6653 -112.254 80.9809 -106.832 81.1873C-95.8772 81.7214 -84.9105 81.6971 -73.956 81.952C-56.681 82.0006 -39.4061 81.4058 -22.1433 81.0174C-9.36902 81.0174 3.39309 80.5682 16.1552 80.0706C26.5396 79.7671 36.924 79.5608 47.3083 79.1481C62.6301 78.5776 77.952 78.0556 93.2859 78.3955C103.003 78.5533 112.732 78.3712 122.437 78.8082C129.922 79.1359 137.383 79.8278 144.856 80.3862C151.273 80.7625 157.703 80.9081 164.12 80.8596C178.096 80.8838 192.047 79.5244 206.022 79.9371C214.95 80.192 223.843 80.9809 232.771 81.333C241.287 81.5514 249.828 81.4301 258.344 80.9931C269.335 80.5318 280.302 79.5244 291.293 79.4758C296.994 79.4151 302.684 79.8035 308.373 79.9128C318.151 80.2162 327.941 80.3133 337.719 80.0949C355.989 79.5244 374.283 79.1845 392.565 79.9006C403.786 80.0827 415.007 80.1191 426.217 80.5682C430.632 80.7139 435.048 80.7018 439.464 80.6411V80.1313C434.806 80.192 430.147 80.2041 425.477 80.0342L425.453 80.0463Z" fill="#2F2F2F"/>
<path d="M355.37 98.6906C342.657 98.2051 329.919 98.2051 317.193 98.4236C302.174 98.8606 287.168 98.1201 272.162 97.7317C255.857 97.4404 239.553 97.5618 223.26 97.1005C205.512 96.6757 187.801 95.304 170.065 94.77C161.524 94.3937 152.972 94.418 144.419 94.3694C138.196 94.2602 131.973 93.8839 125.737 93.8596C115.547 93.7018 105.344 94.1145 95.1541 93.7504C84.976 93.5197 74.8342 92.5122 64.6561 92.403C45.2096 92.2816 25.7874 93.3619 6.341 93.7868C-14.2215 94.6364 -34.7719 95.8988 -55.3466 96.5543C-69.2248 96.5179 -82.921 96.882 -96.7991 97.2826C-105.594 97.4161 -114.377 97.6953 -123.16 98.0352V98.5086C-120.261 98.3872 -117.362 98.2779 -114.45 98.2172C-100.948 97.9138 -87.4459 97.5375 -73.9438 97.1976C-66.4952 97.0155 -59.0466 97.234 -51.598 96.9791C-32.285 96.2023 -12.972 95.1463 6.341 94.3087C25.8724 93.8839 45.3916 92.7914 64.923 92.925C75.2952 93.0585 85.6432 94.0659 96.0154 94.2966C107.091 94.6243 118.179 94.1752 129.255 94.418C134.532 94.5151 139.797 94.8307 145.074 94.8792C153.566 94.9035 162.058 94.9156 170.55 95.2798C188.347 95.826 206.119 97.2098 223.928 97.6103C240.002 98.0716 256.076 97.9381 272.149 98.2294C280.544 98.3872 288.927 98.7999 297.31 98.9819C305.013 99.1276 312.704 99.0184 320.408 98.8727C333.158 98.7028 345.92 98.7756 358.658 99.3218C370.025 99.8195 381.38 100.621 392.759 100.778C408.311 101.045 423.863 101.215 439.416 101.519V101.009C424.009 100.706 408.602 100.536 393.183 100.281C380.555 100.111 367.962 99.1519 355.346 98.6906H355.37Z" fill="#2F2F2F"/>
<path d="M351.864 118.039C332.09 117.76 312.316 117.044 292.542 116.425C280.108 115.963 267.673 115.878 255.251 115.308C237.49 114.713 219.791 112.892 202.006 113.038C187.801 113.366 173.583 113.427 159.377 113.087C148.884 112.82 138.402 112.188 127.909 112.273C113.691 112.54 99.5092 113.645 85.2792 113.815C73.0145 114.046 60.7498 113.961 48.4972 114.058C40.8181 114.106 33.1511 114.41 25.4842 114.507C15.8641 114.616 6.24395 114.895 -3.38829 114.786C-17.2786 114.47 -31.1568 113.912 -45.0471 114.252C-66.6165 114.361 -88.0646 116.837 -109.61 117.371C-114.11 117.481 -118.611 117.529 -123.124 117.554V118.063C-115.045 118.015 -106.977 117.881 -98.91 117.481C-83.382 116.765 -67.8903 115.187 -52.338 114.895C-35.33 114.301 -18.334 114.956 -1.3381 115.296C15.2817 115.344 31.8895 114.774 48.4972 114.555C64.7289 114.434 80.9605 114.604 97.18 113.997C108.426 113.584 119.671 112.783 130.929 112.771C141.496 112.808 152.05 113.475 162.616 113.657C170.514 113.766 178.411 113.851 186.309 113.815C195.577 113.633 204.833 113.402 214.101 113.669C222.338 113.9 230.539 114.616 238.764 115.017C253.031 115.781 267.309 116.34 281.588 116.57C308.119 117.396 334.638 118.367 361.181 118.682C378.638 119.095 396.095 118.5 413.552 118.731C422.177 118.828 430.815 118.962 439.44 119.107V118.585C428.91 118.415 418.38 118.258 407.838 118.16C389.18 118.173 370.51 118.512 351.852 118.003L351.864 118.039Z" fill="#2F2F2F"/>
<path d="M422.662 139.888C409.633 139.828 396.616 139.366 383.587 139.075C370 138.832 356.425 138.99 342.838 138.917C327.759 138.662 312.717 137.521 297.649 137.109C278.531 136.368 259.399 136.259 240.268 135.98C227.385 135.98 214.526 135.288 201.655 134.936C189.827 134.608 177.999 134.827 166.183 134.839C144.431 135.191 122.668 135.094 100.916 134.851C85.0002 134.985 69.0718 135.409 53.1556 135.203C37.4941 134.936 21.8448 134.802 6.18328 134.681C-7.59785 134.426 -21.379 133.989 -35.1601 134.596C-52.3259 135.288 -69.5159 135.324 -86.6938 135.956C-95.2827 136.332 -103.86 137.109 -112.449 137.436C-116.003 137.57 -119.557 137.619 -123.124 137.606V138.128C-116.816 138.128 -110.495 137.946 -104.199 137.521C-83.9521 135.919 -63.6322 136.028 -43.3366 135.373C-36.2277 135.154 -29.1309 134.851 -22.0219 134.778C-13.4087 134.742 -4.79552 134.985 3.80556 135.142C18.9818 135.324 34.158 135.373 49.3343 135.652C65.7721 135.943 82.2222 135.579 98.6601 135.361C109.772 135.337 120.897 135.616 132.009 135.579C152.377 135.64 172.734 135.118 193.102 135.276C205.67 135.349 218.226 136.15 230.794 136.368C251.308 136.66 271.834 136.769 292.348 137.424C307.925 137.849 323.465 138.893 339.041 139.342C353.077 139.621 367.113 139.294 381.149 139.561C395.003 139.791 408.857 140.362 422.723 140.41C428.291 140.483 433.872 140.459 439.44 140.398V139.888C433.847 139.949 428.255 139.973 422.662 139.901V139.888Z" fill="#2F2F2F"/>
<path d="M333.776 151.31C320.056 150.897 306.323 150.472 292.603 150.885C271.773 151.237 250.956 149.963 230.127 149.938C211.554 149.501 192.981 150.351 174.396 150.339C166.365 150.363 158.334 149.987 150.303 149.914C140.076 149.756 129.85 149.866 119.611 149.926C113.521 149.89 107.443 149.659 101.353 149.623C94.1715 149.574 86.9776 149.708 79.7959 149.598C66.0512 149.307 52.2943 149.598 38.5496 149.514C20.2313 149.319 1.92522 148.567 -16.393 148.385C-28.7063 148.348 -40.9953 149.477 -53.2964 149.732C-59.5561 149.89 -65.8159 149.647 -72.0635 149.598C-79.7668 149.538 -87.4581 149.55 -95.1614 149.55C-104.49 149.671 -113.807 149.914 -123.136 150.205V150.727C-117.811 150.57 -112.485 150.424 -107.171 150.266C-90.9883 149.853 -74.793 150.06 -58.6099 150.302C-45.4353 150.302 -32.3092 149.028 -19.1347 148.907C-11.0431 148.797 -2.95155 149.137 5.14001 149.344C17.0529 149.574 28.9658 149.926 40.8909 150.035C54.8055 150.035 68.7079 149.866 82.6103 150.133C89.0884 150.193 95.5787 150.072 102.057 150.133C108.232 150.181 114.394 150.424 120.557 150.424C130.953 150.351 141.362 150.266 151.759 150.424C159.814 150.533 167.857 150.885 175.9 150.824C194.521 150.776 213.143 149.999 231.764 150.448C251.975 150.497 272.174 151.723 292.384 151.383C306.141 150.97 319.898 151.383 333.643 151.796C340.946 152.135 348.249 152.645 355.564 152.694C383.515 152.657 411.453 153.908 439.391 154.879V154.369C411.332 153.398 383.272 152.16 355.2 152.184C348.043 152.123 340.885 151.638 333.74 151.298L333.776 151.31Z" fill="#2F2F2F"/>
<path d="M336.542 170.088C315.325 170.015 294.095 170.161 272.877 170.416C258.077 170.573 243.265 170.452 228.465 170.343C218.226 170.246 207.987 169.991 197.76 170.294C183.288 170.683 168.852 171.787 154.391 172.37C142.139 172.819 129.886 172.855 117.633 172.977C101.923 172.977 86.2376 173.717 70.5397 174.081C56.5523 174.251 42.565 174.166 28.5776 174.033C18.5087 174.009 8.45184 173.96 -1.61713 173.62C-14.1609 173.292 -26.6561 172.091 -39.1756 171.472C-53.9879 171.095 -68.8123 171.205 -83.6246 171.29C-95.0886 171.447 -106.528 172.115 -117.992 172.394C-119.703 172.431 -121.414 172.467 -123.124 172.503V173.025C-119.278 172.94 -115.433 172.843 -111.575 172.746C-103.411 172.431 -95.2342 172.054 -87.0699 171.897C-78.6022 171.69 -70.1225 171.763 -61.6427 171.787C-53.9879 171.787 -46.3452 171.751 -38.7025 172.03C-25.3459 172.758 -12.0136 173.996 1.36716 174.251C11.606 174.591 21.8569 174.531 32.1078 174.616C45.0276 174.737 57.9353 174.785 70.8551 174.616C86.4196 174.239 101.972 173.511 117.548 173.511C129.825 173.39 142.102 173.353 154.379 172.904C168.973 172.321 183.53 171.193 198.124 170.816C208.315 170.525 218.505 170.78 228.707 170.877C243.532 170.986 258.368 171.108 273.193 170.95C294.495 170.695 315.786 170.561 337.088 170.622C355.685 170.221 374.283 170.331 392.88 170.78C408.408 170.853 423.912 171.399 439.428 172.018V171.508C423.851 170.889 408.275 170.343 392.698 170.27C373.979 169.809 355.249 169.736 336.53 170.112L336.542 170.088Z" fill="#2F2F2F"/>
<path d="M386.22 189.558C373.713 189.157 361.23 188.538 348.722 188.028C340.364 187.737 331.993 187.676 323.635 187.361C308.301 186.681 292.943 186.341 277.596 186.001C267.443 185.758 257.289 185.212 247.135 185.127C240.45 185.067 233.754 184.969 227.07 185.018C216.819 185.151 206.568 185.516 196.305 185.443C184.634 185.334 172.964 184.702 161.294 184.484C147.695 184.29 134.108 184.484 120.508 184.824C107.479 185.261 94.4505 184.982 81.4215 185.309C68.0528 185.734 54.7206 186.984 41.3398 187.458C27.9954 187.943 14.6388 187.421 1.28228 187.858C-12.3533 188.307 -25.9646 189.424 -39.588 189.983C-56.96 191.002 -74.3684 190.869 -91.7525 191.318C-102.222 191.645 -112.679 192.058 -123.136 192.532V193.066C-117.932 192.823 -112.715 192.58 -107.511 192.362C-91.0246 191.658 -74.5261 191.561 -58.0276 191.233C-48.6137 191.026 -39.2119 190.48 -29.8102 190.019C-18.1642 189.412 -6.51814 188.49 5.14002 188.283C16.3736 187.992 27.6071 188.392 38.8407 188.053C52.913 187.664 66.9367 186.292 80.9969 185.831C89.9255 185.54 98.8542 185.698 107.795 185.588C117.973 185.431 128.139 185.103 138.317 184.994C148.083 184.884 157.861 184.86 167.626 185.151C179.94 185.491 192.253 186.135 204.578 185.928C219.573 185.661 234.421 185.346 249.428 185.673C257.847 185.783 266.242 186.208 274.661 186.438C284.875 186.742 295.09 186.851 305.292 187.191C319.377 187.737 333.461 188.21 347.558 188.502C357.833 188.89 368.108 189.436 378.383 189.8C389.459 190.25 400.559 190.468 411.647 190.541C418.95 190.589 426.253 190.468 433.556 190.723C435.509 190.772 437.475 190.844 439.428 190.917V190.407C437.159 190.31 434.891 190.237 432.61 190.177C417.143 189.898 401.675 190.14 386.208 189.57L386.22 189.558Z" fill="#2F2F2F"/>
<path d="M401.044 209.489C391.485 209.149 381.925 208.955 372.378 208.336C344.355 206.806 316.356 204.099 288.26 204.427C267.37 204.476 246.48 203.808 225.59 203.76C207.72 203.905 189.863 204.876 171.981 204.755C159.134 204.597 146.324 203.201 133.477 203.116C109.566 203.323 85.6796 204.391 61.7688 204.124C48.9218 203.869 36.099 204.876 23.3005 205.932C15.8762 206.515 8.42759 206.721 0.978973 206.952C-13.5786 207.547 -28.1604 207.535 -42.6815 208.76C-51.3675 209.38 -60.0535 209.999 -68.7638 210.338C-78.5901 210.642 -88.4286 210.763 -98.267 210.982C-106.553 211.152 -114.838 211.382 -123.124 211.577V212.062C-104.393 211.625 -85.6626 211.322 -66.9441 210.788C-53.4783 210.217 -40.0612 208.906 -26.6076 208.287C-11.7953 207.899 3.01703 207.535 17.8172 206.818C31.4528 205.944 45.064 204.439 58.7481 204.633C83.7386 204.961 108.705 203.869 133.695 203.638C145.511 203.723 157.278 204.925 169.082 205.216C187.801 205.544 206.495 204.415 225.214 204.281C244.43 204.294 263.633 204.901 282.849 204.937C293.234 204.973 303.63 204.864 314.015 205.35C333.485 206.199 352.92 207.802 372.378 208.858C382.023 209.489 391.679 209.671 401.336 210.023C414.037 210.618 426.726 211.37 439.44 211.722V211.212C439.258 211.212 439.076 211.212 438.894 211.212C426.265 210.848 413.661 210.096 401.044 209.513V209.489Z" fill="#2F2F2F"/>
<path d="M401.044 224.795C393.438 224.467 385.856 223.8 378.25 223.351C367.89 222.768 357.529 222.404 347.157 222.04C334.674 221.578 322.191 221.943 309.708 221.591C286.901 221.081 264.106 219.576 241.287 220.377C223.818 221.129 206.349 219.83 188.88 220.182C177.562 220.401 166.243 220.571 154.925 220.838C142.539 221.275 130.153 221.809 117.755 222.027C106.181 222.258 94.6446 223.326 83.0713 223.581C61.2714 224.212 39.4715 224.103 17.6716 223.982C10.2837 223.885 2.88357 223.581 -4.50438 223.557C-10.0969 223.569 -15.6894 223.824 -21.2698 224.067C-37.0041 225.001 -52.7383 225.56 -68.4847 226.179C-86.1964 227.053 -103.908 228.109 -121.632 228.801C-122.129 228.825 -122.627 228.849 -123.124 228.873V229.432C-104.903 228.546 -86.6938 227.684 -68.4847 226.701C-54.2911 226.106 -40.0854 225.705 -25.8918 224.831C-18.9285 224.467 -11.953 224.127 -4.96536 224.091C2.58029 224.091 10.1259 224.419 17.6837 224.516C36.2567 224.601 54.8297 224.771 73.4027 224.346C86.0556 224.212 98.6843 223.411 111.325 222.768C119.744 222.464 128.188 222.38 136.607 222.052C147.416 221.639 158.212 221.202 169.021 221.093C179.224 220.947 189.438 220.583 199.641 220.668C211.287 220.753 222.945 221.348 234.591 221.093C247.984 220.607 261.377 220.595 274.77 220.971C285.991 221.311 297.201 221.87 308.434 222.088C320.869 222.464 333.315 222.137 345.75 222.525C356.413 222.901 367.077 223.266 377.728 223.86C385.613 224.297 393.474 225.001 401.36 225.341C414.037 225.924 426.738 225.22 439.428 225.366V224.856C426.629 224.71 413.831 225.426 401.032 224.819L401.044 224.795Z" fill="#2F2F2F"/>
<path d="M331.095 241.133C318.455 240.429 305.814 239.847 293.173 239.276C277.487 238.414 261.814 237.298 246.152 236.12C234.797 235.404 223.418 235.562 212.039 235.647C203.074 235.768 194.121 235.72 185.156 235.877C169.434 236.072 153.724 236.594 138.002 237.018C124.936 237.213 111.883 238.002 98.8299 238.584C76.3142 239.228 53.8713 241.048 31.4285 242.845C24.9382 243.318 18.4359 243.573 11.9456 243.913C5.61311 244.289 -0.719429 244.751 -7.06409 245.042C-21.8036 245.709 -36.6159 244.459 -51.3069 246.086C-63.8263 247.652 -76.3822 248.708 -88.9988 249.132C-97.7818 249.509 -106.541 250.249 -115.312 250.686C-117.92 250.771 -120.54 250.88 -123.148 250.977V251.512C-118.999 251.342 -114.838 251.16 -110.689 250.953C-98.4369 250.067 -86.1722 249.594 -73.9196 248.865C-65.2942 248.368 -56.7538 247.154 -48.1649 246.292C-34.3959 245.187 -20.5541 246.183 -6.77293 245.552C-0.476791 245.26 5.81934 244.787 12.1155 244.423C18.4844 244.083 24.8533 243.84 31.2222 243.379C52.8766 241.68 74.5309 239.859 96.2459 239.203C105.817 238.876 115.365 238.22 124.924 237.88C143.255 237.407 161.573 236.824 179.903 236.46C189.426 236.29 198.961 236.278 208.485 236.193C220.046 236.096 231.619 235.902 243.168 236.46C258.647 237.504 274.127 238.73 289.619 239.604C302.32 240.271 315.021 240.721 327.723 241.485C348.686 242.456 369.588 244.398 390.539 245.37C406.807 246.146 423.111 245.539 439.391 246.025V245.515C423.038 245.018 406.661 245.637 390.32 244.835C370.546 243.925 350.821 242.117 331.047 241.133H331.095Z" fill="#2F2F2F"/>
<path d="M375.023 262.29C362.6 261.974 350.214 260.979 337.792 260.627C328.414 260.287 319.037 259.765 309.659 259.437C301.325 259.195 292.979 259.085 284.645 258.745C273.872 258.199 263.1 257.956 252.315 257.629C240.62 257.216 228.926 256.718 217.231 256.67C206.75 256.548 196.268 257.046 185.787 257.18C176.81 257.228 167.845 257.726 158.868 257.665C148.52 257.665 138.196 256.718 127.848 256.828C123.966 256.913 120.084 257.204 116.202 257.313C111.871 257.422 107.552 257.386 103.221 257.483C94.2928 257.714 85.3763 258.333 76.4719 259.061C46.447 261.404 16.4464 264.45 -13.6513 265.652C-21.1 265.798 -28.5486 265.616 -35.985 265.846C-44.3677 266.028 -52.7262 266.635 -61.0847 267.072C-68.5333 267.461 -75.994 267.194 -83.4426 267.4C-96.3139 267.825 -109.185 268.189 -122.056 268.201C-122.408 268.201 -122.748 268.201 -123.1 268.201V268.699C-120.164 268.699 -117.228 268.675 -114.305 268.638C-104.369 268.614 -94.4457 268.25 -84.5223 267.922C-76.9524 267.679 -69.3825 267.958 -61.8247 267.594C-53.0901 267.169 -44.3556 266.502 -35.609 266.32C-27.6387 266.077 -19.6563 266.32 -11.6739 266.089C18.1447 264.73 47.8542 261.792 77.6123 259.462C86.6015 258.733 95.5908 258.126 104.604 257.944C108.668 257.871 112.72 257.908 116.784 257.787C120.666 257.653 124.548 257.374 128.43 257.301C138.669 257.265 148.896 258.139 159.147 258.151C168.645 258.187 178.132 257.677 187.631 257.641C197.542 257.471 207.453 257.046 217.365 257.155C229.205 257.204 241.033 257.714 252.861 258.126C263.682 258.43 274.491 258.709 285.3 259.243C293.67 259.571 302.053 259.668 310.424 259.935C320.153 260.287 329.882 260.821 339.612 261.161C351.452 261.525 363.268 262.472 375.108 262.763C391.897 263.37 408.699 263.516 425.477 264.378C430.135 264.584 434.781 264.827 439.44 265.082V264.572C434.66 264.317 429.88 264.062 425.101 263.844C408.42 263.006 391.715 262.848 375.023 262.253V262.29Z" fill="#2F2F2F"/>
<path d="M388.804 283.472C359.567 280.656 330.149 282.647 300.84 281.773C295.757 281.676 290.686 281.542 285.603 281.7C280.326 281.882 275.061 282.319 269.796 282.525C258.465 282.877 247.147 283.253 235.816 283.46C225.274 283.569 214.732 283.508 204.202 282.95C193.369 282.598 182.56 281.833 171.727 281.53C154.27 281.348 136.837 280.025 119.38 280.474C105.66 281.069 92 282.671 78.2552 282.719C69.7391 282.865 61.235 282.574 52.7189 282.21C45.4765 281.955 38.222 281.821 30.9675 281.591C18.0962 281.117 5.23705 282.04 -7.62211 282.562C-17.4727 282.78 -27.3233 282.489 -37.1739 282.707C-55.5649 283.144 -73.9681 283.533 -92.3591 283.994C-98.1336 284.176 -103.908 284.564 -109.683 284.601C-114.159 284.625 -118.648 284.528 -123.124 284.479V285.001C-118.514 285.05 -113.904 285.135 -109.294 285.111C-103.229 285.05 -97.1752 284.637 -91.1096 284.467C-83.8065 284.237 -76.4914 284.164 -69.1884 283.982C-55.0312 283.69 -40.8739 283.144 -26.7046 283.144C-20.2144 283.071 -13.7241 283.302 -7.24604 283.071C1.64619 282.768 10.5263 282.04 19.4307 282.015C37.7489 281.87 56.055 283.229 74.3732 283.266C88.2393 283.375 102.045 281.991 115.874 281.154C132.057 280.304 148.241 281.676 164.412 281.882C182.645 282.161 200.83 283.666 219.063 283.97C230.77 284.127 242.476 283.945 254.171 283.484C262.542 283.314 270.912 283.096 279.271 282.537C292.336 281.615 305.438 282.671 318.515 282.537C330.683 282.537 342.838 282.282 355.006 282.489C363.037 282.574 371.068 282.61 379.075 283.217C391.752 284.14 404.393 285.426 417.07 286.337C424.518 286.652 431.967 286.798 439.416 286.859V286.349C432.028 286.288 424.652 286.155 417.264 285.839C407.753 285.208 398.278 284.188 388.78 283.484L388.804 283.472Z" fill="#2F2F2F"/>
<path d="M397.708 303.609C385.298 303.221 372.912 302.262 360.489 301.983C351.719 301.788 342.948 301.497 334.177 301.412C323.635 301.388 313.105 301.278 302.575 300.89C296.121 300.684 289.667 300.574 283.213 300.38C271.349 299.834 259.472 299.142 247.596 299.021C231.061 298.912 214.562 300.295 198.039 300.757C185.411 301.072 172.77 300.174 160.141 300.926C146.348 301.703 132.555 302.796 118.725 302.917C100.601 302.82 82.4891 302.298 64.3649 302.298C52.549 302.25 40.7332 301.485 28.9173 301.412C22.0389 301.315 15.1483 301.448 8.26987 301.473C-6.39685 301.266 -21.0636 301.157 -35.7303 300.951C-47.0852 300.781 -58.44 300.769 -69.7828 300.574C-77.0737 300.514 -84.3525 300.101 -91.6312 300.101C-102.137 300.077 -112.63 300.732 -123.124 300.975V301.485C-112.655 301.242 -102.198 300.587 -91.7283 300.611C-84.3525 300.611 -76.9766 301.036 -69.6008 301.084C-57.4817 301.278 -45.3625 301.291 -33.2434 301.497C-19.2317 301.667 -5.22012 301.8 8.79151 301.983C16.1795 301.91 23.5674 301.813 30.9554 301.934C39.5201 302.055 48.0726 302.395 56.6373 302.699C63.8311 302.844 71.025 302.808 78.2188 302.905C93.1646 302.905 108.11 303.597 123.056 303.366C138.087 303.051 153.069 301.57 168.087 301.145C179.333 300.999 190.567 301.618 201.8 301.157C218.784 300.502 235.756 299.166 252.764 299.616C262.76 299.834 272.744 300.417 282.74 300.866C291.365 301.121 300.003 301.291 308.64 301.582C317.46 301.91 326.291 301.849 335.111 301.934C343.324 302.031 351.524 302.298 359.737 302.48C372.233 302.747 384.691 303.694 397.174 304.107C409.281 304.519 421.388 304.386 433.496 304.252C435.473 304.252 437.45 304.277 439.44 304.301V303.791C437.608 303.767 435.764 303.755 433.932 303.743C421.862 303.864 409.779 304.01 397.708 303.621V303.609Z" fill="#2F2F2F"/>
<path d="M355.091 317.811C342.693 317.762 330.295 317.531 317.909 317.216C308.289 316.742 298.656 316.305 289.012 316.488C275.789 316.512 262.602 317.422 249.403 317.956C240.111 318.284 230.806 318.26 221.501 318.563C208.096 319.109 194.703 319.619 181.298 319.996C169.434 320.323 157.57 319.996 145.705 320.165C131.499 320.275 117.282 320.784 103.076 320.845C92.4124 320.809 81.7733 320.02 71.122 319.886C59.3183 319.656 47.5145 320.202 35.723 320.275C22.6818 320.165 9.64069 319.898 -3.40043 319.947C-12.329 319.886 -21.2455 319.389 -30.1742 319.255C-38.8723 319.085 -47.5826 319.194 -56.2807 319.037C-65.2214 318.794 -74.1622 318.32 -83.1151 318.223C-96.4473 318.005 -109.792 318.333 -123.124 318.551V319.061C-119.509 318.988 -115.906 318.927 -112.291 318.891C-94.846 318.43 -77.3891 318.697 -59.9565 319.461C-51.416 319.741 -42.8756 319.607 -34.3352 319.716C-26.9109 319.777 -19.4865 320.08 -12.0743 320.299C-3.70371 320.566 4.679 320.445 13.0496 320.517C22.4271 320.602 31.7924 320.906 41.1699 320.748C51.8454 320.53 62.5331 320.19 73.2207 320.445C83.5323 320.639 93.8439 321.367 104.155 321.367C118.737 321.234 133.307 320.748 147.889 320.663C159.389 320.53 170.89 320.857 182.39 320.469C195.735 320.105 209.079 319.571 222.423 319.049C231.558 318.77 240.705 318.782 249.84 318.454C263.015 317.896 276.177 317.01 289.364 316.985C299.554 316.779 309.732 317.362 319.91 317.786C332.685 318.041 345.471 318.308 358.245 318.32C384.182 318.575 410.118 319.316 436.043 319.753C437.171 319.753 438.299 319.753 439.428 319.753V319.243C438.299 319.243 437.171 319.243 436.043 319.243C409.051 318.794 382.071 317.981 355.079 317.786L355.091 317.811Z" fill="#2F2F2F"/>
<path d="M411.865 336.674C391.509 336.382 371.177 334.914 350.809 334.974C330.367 335.047 309.938 334.598 289.497 334.452C273.29 333.918 257.058 333.991 240.839 333.676C230.272 333.469 219.718 334.003 209.164 334.173C197.651 334.355 186.127 334.173 174.614 334.683C161.9 335.302 149.211 336.273 136.497 336.941C126.137 337.341 115.765 337.329 105.405 337.438C91.818 337.669 78.2309 337.269 64.656 337.196C39.9689 337.086 15.2938 336.88 -9.39331 336.771C-18.0186 336.747 -26.6319 337.414 -35.2451 337.754C-45.0471 338.033 -54.8613 338.252 -64.6634 338.337C-72.6579 338.373 -80.6524 338.288 -88.6348 338.045C-95.671 337.791 -102.707 337.281 -109.743 337.402C-114.195 337.451 -118.648 337.584 -123.112 337.693V338.215C-116.961 338.058 -110.811 337.839 -104.66 337.924C-98.6553 338.058 -92.6745 338.458 -86.6696 338.628C-72.4638 339.016 -58.2581 338.859 -44.0524 338.495C-29.5919 338.264 -15.1557 336.917 -0.683052 337.317C21.869 337.475 44.4211 337.572 66.9731 337.718C78.2673 337.766 89.5616 338.118 100.856 337.985C112.538 337.827 124.221 337.888 135.903 337.463C148.811 336.832 161.706 335.812 174.626 335.193C185.326 334.707 196.038 334.841 206.75 334.707C216.612 334.622 226.475 334.1 236.35 334.137C253.176 334.44 270.014 334.368 286.84 334.889C304.407 335.144 321.973 335.302 339.539 335.484C346.623 335.533 353.72 335.375 360.805 335.545C377.679 335.958 394.554 336.868 411.429 337.171C420.758 337.414 430.099 337.244 439.44 337.317V336.807C430.244 336.734 421.049 336.904 411.865 336.674Z" fill="#2F2F2F"/>
<path d="M331.399 352.538C298.766 351.41 266.108 352.988 233.487 351.834C224.195 351.579 214.914 352.259 205.622 352.296C195.771 352.356 185.932 351.822 176.094 351.555C166.85 351.3 157.606 350.803 148.362 350.584C134.945 350.341 121.528 350.499 108.122 350.985C94.2928 351.41 80.451 351.737 66.6213 352.162C57.8989 352.502 49.1887 353.085 40.4663 353.412C26.5032 354.007 12.5158 353.546 -1.4594 353.643C-16.5143 353.801 -31.5328 354.784 -46.5514 355.561C-55.3829 356.046 -64.2267 356.532 -73.0704 356.763C-82.1203 356.957 -91.1702 356.932 -100.22 357.127C-107.851 357.2 -115.469 357.345 -123.1 357.454V357.94C-121.462 357.916 -119.824 357.891 -118.187 357.867C-100.778 357.588 -83.1878 357.576 -65.828 357.042C-43.5671 356.119 -21.3304 354.311 0.954727 354.129C13.1224 354.153 25.2779 354.42 37.4456 354.044C46.2529 353.764 55.036 353.182 63.8433 352.805C72.1896 352.453 80.5359 352.32 88.8822 352.041C105.162 351.701 121.43 350.863 137.723 350.997C153.991 351.009 170.235 352.004 186.503 352.405C194.291 352.696 202.079 352.927 209.88 352.769C219.233 352.478 228.574 352.089 237.927 352.453C269.408 353.473 300.925 351.895 332.406 353.097C361.618 354.517 390.854 355.488 420.078 356.69C426.544 357.03 433.01 357.467 439.476 357.879V357.369C433.01 356.957 426.544 356.532 420.078 356.18C390.527 354.966 360.975 353.983 331.435 352.551L331.399 352.538Z" fill="#2F2F2F"/>
<path d="M380.057 372.13C356.51 371.923 332.964 371.923 309.429 371.268C287.107 370.358 264.774 371.474 242.452 371.523C227.919 371.353 213.41 370.528 198.877 370.625C185.726 370.673 172.588 371.462 159.426 371.547C129 371.511 98.5873 372.494 68.1863 373.416C58.2993 373.696 48.4123 373.635 38.5253 373.829C25.8724 374.133 13.2073 374.606 0.55439 375.104C-9.98769 375.686 -20.5419 376.123 -31.0961 376.342C-39.1392 376.645 -47.1579 377.167 -55.201 377.373C-68.691 377.677 -82.1809 377.786 -95.6709 378.308C-104.818 378.636 -113.953 378.794 -123.1 379.012V379.522C-121.086 379.473 -119.072 379.425 -117.058 379.401C-105.449 379.17 -93.8391 378.757 -82.2173 378.405C-72.7307 378.187 -63.2561 378.114 -53.7695 377.859C-46.3573 377.628 -38.9572 377.179 -31.5571 376.888C-21.8157 376.633 -12.0743 376.366 -2.34499 375.759C11.2785 375.189 24.9019 374.691 38.5374 374.351C49.6254 374.145 60.7255 374.205 71.8257 373.841C99.764 373.004 127.702 372.045 155.653 372.105C169.216 372.081 182.754 371.365 196.305 371.159C211.396 371.013 226.463 371.802 241.542 372.045C264.798 371.996 288.066 370.843 311.321 371.838C334.347 372.445 357.384 372.433 380.421 372.652C396.519 372.967 412.606 373.696 428.692 374.242C432.282 374.412 435.873 374.557 439.476 374.691V374.145C432.477 373.878 425.489 373.635 418.489 373.356C405.691 372.943 392.892 372.324 380.094 372.13H380.057Z" fill="#2F2F2F"/>
<path d="M336.373 389.451C320.893 388.989 305.401 388.989 289.91 388.832C279.465 388.747 269.032 388.395 258.587 388.37C246.953 388.346 235.331 388.977 223.697 388.856C202.552 388.759 181.408 388.03 160.263 388.152C135.964 388.395 111.689 389.596 87.3901 389.657C77.7336 389.766 68.1014 390.203 58.4449 390.264C46.2044 390.349 33.964 390.191 21.7235 390.422C4.61838 390.628 -12.4867 391.126 -29.5918 391.781C-40.1339 392.194 -50.6517 392.874 -61.206 393.044C-72.6822 393.141 -84.1462 393.529 -95.6103 393.796C-102.307 393.942 -109.015 393.772 -115.712 393.869C-118.187 393.917 -120.661 393.966 -123.136 394.015V394.524C-119.642 394.452 -116.149 394.379 -112.655 394.342C-106.759 394.342 -100.863 394.415 -94.9673 394.294C-83.7095 394.015 -72.4638 393.65 -61.206 393.553C-50.6639 393.383 -40.1339 392.704 -29.5918 392.291C-12.232 391.623 5.12789 391.126 22.4999 390.919C34.6069 390.689 46.7139 390.859 58.8209 390.762C68.6958 390.701 78.5585 390.24 88.4213 390.155C112.502 390.094 136.558 388.88 160.639 388.662C181.662 388.552 202.674 389.269 223.685 389.366C235.319 389.475 246.941 388.856 258.575 388.88C269.141 388.892 279.707 389.256 290.286 389.341C305.644 389.499 321.014 389.511 336.36 389.96C358.282 390.519 380.166 391.89 402.076 392.849C414.522 393.48 426.981 393.177 439.428 393.553V393.044C426.738 392.655 414.037 392.983 401.348 392.303C379.681 391.368 358.039 390.009 336.36 389.451H336.373Z" fill="#2F2F2F"/>
<path d="M414.328 415.33C385.395 416.046 356.45 415.864 327.517 415.233C307.937 415.16 288.357 414.856 268.789 414.152C257.677 413.715 246.577 413.023 235.465 412.623C211.639 411.676 187.776 411.615 163.963 410.317C154.816 409.855 145.669 409.224 136.51 409.079C122.134 408.836 107.746 408.981 93.3708 408.678C72.7598 408.18 52.1609 407.027 31.5377 407.319C25.3265 407.355 19.1152 407.258 12.8919 407.282C7.23872 407.355 1.5734 407.561 -4.07977 407.513C-11.4071 407.561 -18.698 406.772 -26.0253 406.651C-44.1009 406.809 -62.0309 409.6 -80.1065 409.698C-92.7109 409.928 -105.315 409.394 -117.92 409.151C-119.654 409.151 -121.389 409.176 -123.124 409.212V409.722C-121.183 409.685 -119.254 409.661 -117.313 409.661C-102.962 410.013 -88.5984 410.511 -74.235 410.098C-60.102 409.625 -46.054 407.755 -31.9089 407.331C-22.4708 406.748 -13.069 408.132 -3.61878 408.035C6.07412 407.986 15.767 407.683 25.472 407.853C35.6016 407.853 45.7434 407.731 55.873 408.035C67.3856 408.29 78.8861 408.836 90.3986 409.151C103.84 409.443 117.294 409.431 130.735 409.516C145.511 409.588 160.238 410.778 174.99 411.336C190.809 412.101 206.653 412.186 222.484 412.696C237.6 413.096 252.691 413.97 267.794 414.638C281.078 415.148 294.374 415.415 307.67 415.621C326.352 415.657 345.034 416.179 363.729 416.313C381.21 416.507 398.679 416.155 416.148 415.852C423.912 415.755 431.688 415.997 439.452 416.155V415.645C431.081 415.475 422.711 415.208 414.34 415.366L414.328 415.33Z" fill="#2F2F2F"/>
<path d="M411.841 431.182C401.384 431.048 390.927 430.587 380.47 430.417C367.477 430.381 354.497 430.502 341.504 430.308C327.771 430.029 314.039 430.15 300.306 430.029C283.444 429.738 266.569 430.175 249.707 430.454C227.324 430.927 204.942 430.757 182.548 431.036C163.575 431.425 144.638 432.675 125.652 432.566C116.602 432.59 107.552 432.626 98.5145 432.335C92.376 432.153 86.2497 431.655 80.1113 431.631C59.9977 431.631 39.884 431.874 19.7582 431.583C10.0411 431.413 0.336037 430.842 -9.38112 430.769C-20.0809 430.684 -30.7686 431.146 -41.4684 431.206C-61.4001 431.182 -81.3196 430.769 -101.239 431.303C-108.542 431.437 -115.833 431.765 -123.136 432.007V432.493C-118.441 432.359 -113.734 432.214 -109.04 432.019C-87.0698 431.279 -65.1001 431.607 -43.1303 431.728C-32.1758 431.704 -21.2213 431.218 -10.2788 431.279C-0.525291 431.315 9.21613 431.886 18.9697 432.08C39.2896 432.396 59.6095 432.165 79.9294 432.141C85.716 432.177 91.4905 432.602 97.2771 432.821C106.727 433.136 116.19 433.124 125.652 433.088C144.565 433.197 163.441 431.947 182.354 431.558C203.693 431.267 225.032 431.485 246.371 431.012C261.401 430.806 276.432 430.405 291.463 430.442C308.143 430.709 324.811 430.502 341.492 430.83C354.351 431.036 367.198 430.903 380.057 430.939C390.235 431.085 400.414 431.546 410.592 431.692C420.2 431.959 429.82 431.922 439.428 431.862V431.352C430.232 431.413 421.025 431.449 411.829 431.206L411.841 431.182Z" fill="#2F2F2F"/>
<path d="M376.09 447.362C362.479 447.326 348.88 446.586 335.269 446.537C317.508 446.404 299.76 446.853 282 446.828C266.363 446.707 250.726 446.889 235.088 447.447C228.21 447.666 221.319 447.727 214.429 447.957C208.315 448.151 202.213 448.601 196.099 448.855C187.485 449.135 178.86 449.159 170.247 449.377C157.642 449.814 145.026 450.13 132.409 450.215C114.504 450.385 96.5856 450.324 78.6798 450.446C68.6594 450.433 58.6511 449.899 48.6428 449.681C35.4682 449.438 22.2815 449.742 9.10696 449.584C0.845551 449.414 -7.41586 449.535 -15.6773 449.535C-26.3285 449.402 -36.9798 449.559 -47.6311 449.827C-60.745 449.924 -73.8831 449.851 -86.9728 450.7C-99.0556 451.526 -111.053 453.31 -123.136 454.245V454.743C-113.188 454.148 -103.289 452.533 -93.3539 451.744C-81.1013 450.567 -68.7759 450.506 -56.4748 450.385C-44.2343 450.409 -32.006 449.851 -19.7655 450.033C-8.66538 450.081 2.42262 449.96 13.5227 450.142C24.6956 450.191 35.8564 450.009 47.0293 450.179C56.2612 450.336 65.4931 450.81 74.725 450.943C88.9186 450.992 103.112 450.834 117.294 450.846C134.29 450.798 151.298 450.591 168.281 449.972C177.55 449.681 186.83 449.705 196.111 449.39C201.837 449.159 207.55 448.746 213.276 448.54C220.167 448.273 227.058 448.224 233.96 448.018C248.433 447.545 262.905 447.217 277.39 447.362C296.218 447.46 315.034 446.95 333.861 447.071C348.795 447.095 363.704 447.921 378.638 447.921C398.509 448.006 418.38 448.127 438.251 448.394C438.651 448.394 439.052 448.418 439.452 448.431V447.921C438.676 447.897 437.911 447.884 437.135 447.86C416.791 447.63 396.447 447.496 376.102 447.399L376.09 447.362Z" fill="#2F2F2F"/>
<path d="M403.107 466.966C388.622 466.626 374.137 466.553 359.665 466.82C345.762 467.136 331.86 467.124 317.957 467.549C307.84 467.913 297.771 468.896 287.653 469.248C268.571 469.988 249.476 469.491 230.394 470.001C219.573 470.195 208.764 470.668 197.942 470.632C189.863 470.438 181.771 470.474 173.692 470.45C164.23 470.377 154.755 470.195 145.293 470.34C130.99 470.583 116.711 471.445 102.409 471.809C92.1213 471.918 81.8461 471.736 71.5588 471.663C62.5574 471.663 53.5438 471.639 44.5424 471.457C31.6711 471.032 18.7998 471.882 5.9164 471.688C-3.78862 471.421 -13.4451 470.146 -23.1623 469.94C-34.966 469.818 -46.7819 470.268 -58.5856 470.51C-71.1415 470.729 -83.7095 470.899 -96.2654 471.129C-105.23 471.287 -114.171 470.972 -123.124 470.632V471.154C-114.086 471.494 -105.048 471.773 -96.0106 471.627C-83.3092 471.384 -70.6077 471.226 -57.9184 470.996C-46.1996 470.753 -34.4808 470.292 -22.7741 470.45C-13.0084 470.656 -3.30337 471.979 6.46232 472.185C14.6631 472.367 22.8517 471.931 31.0524 471.846C36.6692 471.809 42.2739 471.906 47.8906 472.015C55.9701 472.173 64.0616 472.149 72.1532 472.173C82.3556 472.258 92.558 472.428 102.76 472.307C117.658 471.906 132.531 470.996 147.428 470.814C157.084 470.692 166.753 470.923 176.409 470.959C184.962 470.862 193.515 471.105 202.067 471.117C213.737 470.996 225.408 470.522 237.09 470.377C254.741 469.976 272.416 470.486 290.055 469.624C298.948 469.26 307.828 468.447 316.72 468.071C330.198 467.621 343.688 467.658 357.166 467.342C372.475 467.039 387.797 467.087 403.119 467.439C412.375 467.658 421.619 468.192 430.875 468.338C433.726 468.41 436.589 468.459 439.44 468.52V468.01C436.577 467.961 433.726 467.901 430.875 467.828C421.619 467.694 412.375 467.148 403.119 466.93L403.107 466.966Z" fill="#2F2F2F"/>
<path d="M388.549 489.883C380.263 489.786 371.978 489.883 363.704 489.883C352.179 489.81 340.679 490.83 329.154 490.805C310.642 490.745 292.142 490.004 273.642 489.604C260.552 489.312 247.45 489.458 234.36 489.3C222.302 489.167 210.268 488.463 198.221 488.232C187.328 488.038 176.422 488.256 165.528 488.366C140.452 488.827 115.401 487.528 90.338 486.897C78.9224 486.921 67.519 487.54 56.1156 487.844C45.8526 488.22 35.5773 488.232 25.3022 488.39C8.93706 488.803 -7.36739 490.49 -23.7082 491.255C-35.1116 491.862 -46.5272 491.801 -57.9305 491.764C-64.9303 491.801 -71.9301 491.971 -78.9177 492.456C-90.4909 493.294 -102.088 494.471 -113.71 494.204C-116.852 494.119 -119.982 493.949 -123.112 493.755V494.277C-115.506 494.726 -107.875 494.945 -100.257 494.459C-89.387 493.998 -78.5659 492.638 -67.6841 492.42C-54.0607 492.031 -40.4373 492.578 -26.826 491.898C-10.4487 491.23 5.87997 489.592 22.2572 488.973C32.593 488.706 42.9289 488.803 53.2526 488.439C65.7115 488.135 78.1581 487.443 90.617 487.407C113.545 487.977 136.461 489.179 159.389 488.936C171.763 488.851 184.137 488.584 196.511 488.706C209.261 488.924 221.999 489.689 234.749 489.822C247.45 489.968 260.139 489.822 272.841 490.114C291.487 490.502 310.145 491.267 328.79 491.34C339.284 491.388 349.753 490.514 360.247 490.429C368.836 490.417 377.425 490.332 386.014 490.393C394.578 490.466 403.131 490.696 411.696 490.623C420.94 490.49 430.184 490.356 439.44 490.271V489.762C431.033 489.834 422.626 489.956 414.219 490.077C405.666 490.223 397.102 490.004 388.549 489.907V489.883Z" fill="#2F2F2F"/>
<path d="M373.919 532.003C366.41 531.59 358.888 531.456 351.367 531.262C343.445 530.995 335.523 531.262 327.602 531.444C321.56 531.517 315.519 531.335 309.477 531.25C301.386 531.116 293.294 530.777 285.203 531.116C271.858 531.735 258.55 532.998 245.206 533.653C229.241 534.552 213.313 536.579 197.299 536.336C188.347 536.299 179.406 535.887 170.465 535.935C160.008 536.154 149.575 536.821 139.118 536.627C124.136 536.36 109.166 535.693 94.1836 535.644C79.068 535.571 63.9403 536.045 48.8247 535.693C38.404 535.51 27.9468 535.365 17.5746 534.175C9.60432 533.301 1.67046 532.051 -6.31193 531.226C-14.731 530.497 -23.2108 530.206 -31.6542 530.558C-55.1039 531.444 -78.5294 529.199 -101.979 529.757C-109.04 529.915 -116.088 530.23 -123.124 530.631V531.153C-115.554 530.716 -107.984 530.352 -100.414 530.23C-86.6331 529.927 -72.8763 530.679 -59.1073 531.031C-52.0469 531.129 -44.9865 531.359 -37.926 531.226C-32.8794 531.116 -27.8328 530.886 -22.7862 530.874C-18.7708 530.946 -14.7553 531.153 -10.752 531.359C-0.137108 532.075 10.3565 534.017 20.9592 535.001C30.6399 535.911 40.3935 536.02 50.1107 536.178C64.838 536.506 79.5775 536.02 94.3049 536.105C109.251 536.154 124.172 536.821 139.106 537.088C149.769 537.295 160.408 536.591 171.06 536.384C179.927 536.384 188.783 536.761 197.639 536.797C213.616 537.016 229.496 534.989 245.424 534.102C258.793 533.447 272.125 532.16 285.494 531.566C293.598 531.238 301.701 531.602 309.805 531.723C315.968 531.808 322.143 531.99 328.305 531.893C336.191 531.699 344.064 531.468 351.949 531.735C359.216 531.918 366.494 532.051 373.761 532.452C382.92 532.998 392.067 533.75 401.226 534.139C413.94 534.758 426.678 534.721 439.416 534.916V534.406C426.593 534.2 413.782 534.248 400.972 533.617C391.934 533.241 382.92 532.488 373.895 531.954L373.919 532.003Z" fill="#2F2F2F"/>
<path d="M397.599 515.203C385.431 515.252 373.264 515.179 361.096 515.349C349.547 515.483 337.998 515.92 326.449 515.47C319.595 515.191 312.741 514.815 305.887 514.791C296.218 514.706 286.561 515.021 276.893 515.216C266.06 515.446 255.226 515.191 244.381 515.106C236.726 515.021 229.059 514.851 221.404 515.155C206.726 515.677 192.035 516.757 177.344 516.223C166.656 515.653 155.98 514.851 145.281 514.718C137.638 514.645 129.983 514.912 122.34 514.936C112.854 514.985 103.355 514.766 93.8803 514.427C79.1408 513.941 64.4013 513.371 49.6618 513.468C38.8528 513.783 28.056 514.293 17.247 514.378C2.81081 514.645 -11.6254 514.536 -26.0495 514.839C-38.8359 515.094 -51.6101 515.762 -64.3965 515.458C-73.5435 515.349 -82.6541 514.633 -91.7889 514.111C-99.4559 513.674 -107.135 513.443 -114.814 513.237C-117.58 513.176 -120.346 513.164 -123.1 513.188V513.71C-112.218 513.65 -101.324 514.147 -90.4545 514.706C-80.4462 515.349 -70.4379 515.992 -60.3932 516.041C-47.7038 516.15 -35.0266 515.47 -22.3373 515.276C-8.64111 515.082 5.05511 515.118 18.7392 514.864C29.2327 514.779 39.7142 514.232 50.2077 513.965C65.1049 513.892 79.99 514.475 94.8751 514.961C104.034 515.276 113.193 515.483 122.365 515.434C129.837 515.422 137.298 515.155 144.771 515.216C155.895 515.301 166.983 516.199 178.096 516.745C193.248 517.255 208.375 516.053 223.515 515.592C232.504 515.325 241.506 515.616 250.495 515.677C257.446 515.725 264.386 515.847 271.337 515.81C280.035 515.689 288.733 515.41 297.431 515.301C307.888 515.106 318.333 515.64 328.778 516.053C339.794 516.369 350.821 515.968 361.836 515.847C373.882 515.689 385.929 515.75 397.975 515.701C409.658 515.75 421.34 516.223 433.022 516.442C435.17 516.478 437.317 516.514 439.464 516.539V516.029C437.317 515.992 435.17 515.968 433.022 515.932C421.219 515.713 409.427 515.24 397.623 515.191L397.599 515.203Z" fill="#2F2F2F"/>
<path d="M342.135 557.954C320.869 558.197 299.603 558.755 278.336 558.318C256.706 558.112 235.064 558.318 213.434 557.966C195.225 557.711 177.028 557.869 158.819 557.857C138.96 557.711 119.101 557.505 99.2423 557.31C83.9812 557.189 68.72 557.395 53.4589 557.177C34.8859 556.91 16.3008 556.109 -2.27221 556.558C-15.5924 556.946 -28.9125 557.541 -42.2327 557.505C-51.877 557.48 -61.5214 557.177 -71.1658 557.116C-81.5259 557.043 -91.8981 557.225 -102.258 557.468C-109.209 557.578 -116.161 557.59 -123.124 557.565V558.063C-119.412 558.087 -115.7 558.099 -111.975 558.099C-96.5929 557.966 -81.2105 557.395 -65.8159 557.687C-56.402 557.796 -46.976 558.099 -37.5621 557.99C-26.4499 557.954 -15.3497 557.468 -4.23748 557.116C14.4326 556.594 33.1026 557.371 51.7726 557.662C68.2105 557.942 84.6484 557.687 101.086 557.845C120.557 558.051 140.04 558.245 159.511 558.391C177.489 558.379 195.456 558.245 213.434 558.488C234.336 558.803 255.238 558.646 276.153 558.816C298.147 559.265 320.141 558.743 342.135 558.476C359.034 557.99 375.92 558.937 392.819 559.046C408.359 559.083 423.9 559.35 439.44 559.556V559.046C423.778 558.84 408.129 558.561 392.468 558.536C375.69 558.415 358.925 557.48 342.135 557.966V557.954Z" fill="#2F2F2F"/>
</g>
<defs>
<clipPath id="clip0_7_63405">
<rect width="562.564" height="558.579" fill="white" transform="translate(-123.124 0.977539)"/>
</clipPath>
</defs>
</svg>
